{"accessors":[{"bufferView":2,"componentType":5126,"count":45403,"max":[1.3940980434417725,2.0067789554595947,5.015330791473389],"min":[-1.3940980434417725,-0.7990139722824097,2.209537982940674],"type":"VEC3"},{"bufferView":2,"byteOffset":544836,"componentType":5126,"count":45403,"max":[1,0.9999755620956421,0.9999755620956421],"min":[-1,-0.9999755620956421,-0.9999794960021973],"type":"VEC3"},{"bufferView":1,"componentType":5126,"count":45403,"max":[1,1],"min":[0,0],"type":"VEC2"},{"bufferView":0,"componentType":5125,"count":69525,"type":"SCALAR"},{"bufferView":2,"byteOffset":1089672,"componentType":5126,"count":3280,"max":[1.3940980434417725,2.0000340938568115,5.013455867767334],"min":[-1.3940980434417725,-0.7971789836883545,2.221066951751709],"type":"VEC3"},{"bufferView":2,"byteOffset":1129032,"componentType":5126,"count":3280,"max":[0.9998972415924072,0.9999755620956421,0.9999768733978271],"min":[-0.9998972415924072,-0.9999755620956421,-0.9999768733978271],"type":"VEC3"},{"bufferView":1,"byteOffset":363224,"componentType":5126,"count":3280,"max":[1,1],"min":[0,0.009999999776482582],"type":"VEC2"},{"bufferView":0,"byteOffset":278100,"componentType":5125,"count":5784,"type":"SCALAR"}],"asset":{"extras":{"author":"Zhenya_SPG (https://sketchfab.com/Zhenya_SPG)","license":"CC-BY-4.0 (http://creativecommons.org/licenses/by/4.0/)","source":"https://sketchfab.com/3d-models/free-black-dice-22e4305275b74a60919149e3200febe6","title":"Free  black dice"},"generator":"Sketchfab-16.0.0","version":"2.0"},"bufferViews":[{"buffer":0,"byteLength":301236,"name":"floatBufferViews","target":34963},{"buffer":0,"byteLength":389464,"byteOffset":301236,"byteStride":8,"name":"floatBufferViews","target":34962},{"buffer":0,"byteLength":1168392,"byteOffset":690700,"byteStride":12,"name":"floatBufferViews","target":34962}],"buffers":[{"byteLength":1859092,"uri":"data:application/octet-stream;base64,"}],"extensionsUsed":["KHR_materials_specular"],"materials":[{"doubleSided":true,"extensions":{"KHR_materials_specular":{"specularColorFactor":[1,1,1],"specularFactor":0}},"name":"Material","pbrMetallicRoughness":{"baseColorFactor":[0,0,0,1],"metallicFactor":0.7116212163694212,"roughnessFactor":0.6}},{"doubleSided":true,"name":"Material.001","pbrMetallicRoughness":{"metallicFactor":0,"roughnessFactor":0.6}}],"meshes":[{"name":"Object_0","primitives":[{"attributes":{"NORMAL":1,"POSITION":0,"TEXCOORD_0":2},"indices":3,"material":0,"mode":4}]},{"name":"Object_1","primitives":[{"attributes":{"NORMAL":5,"POSITION":4,"TEXCOORD_0":6},"indices":7,"material":1,"mode":4}]}],"nodes":[{"children":[1],"matrix":[1,0,0,0,0,2.220446049250313e-16,-1,0,0,1,2.220446049250313e-16,0,0,0,0,1],"name":"Sketchfab_model"},{"children":[2,3],"name":"black dice.obj.cleaner.materialmerger.gles"},{"mesh":0,"name":"Object_2"},{"mesh":1,"name":"Object_3"}],"scene":0,"scenes":[{"name":"Sketchfab_Scene","nodes":[0]}]}